<svg xmlns="http://www.w3.org/2000/svg" version="1.1" xmlns:xlink="http://www.w3.org/1999/xlink" xmlns:svgjs="http://svgjs.dev/svgjs" width="1500" height="681" viewBox="0 0 1500 681"><g transform="matrix(1,0,0,1,2.018024342455419,1.9245277891329238)"><svg viewBox="0 0 396 180" data-background-color="#ffffff" preserveAspectRatio="xMidYMid meet" height="681" width="1500" xmlns="http://www.w3.org/2000/svg" xmlns:xlink="http://www.w3.org/1999/xlink"><g id="tight-bounds" transform="matrix(1,0,0,1,0.2400000000000091,0.26724712322433675)"><svg viewBox="0 0 395.52 179.46550575355133" height="179.46550575355133" width="395.52"><g><svg viewBox="0 0 639.1988652218181 290.0337470270269" height="179.46550575355133" width="395.52"><g transform="matrix(1,0,0,1,243.67886522181809,89.62463764127759)"><svg viewBox="0 0 395.52 110.7844717444717" height="110.7844717444717" width="395.52"><g id="textblocktransform"><svg viewBox="0 0 395.52 110.7844717444717" height="110.7844717444717" width="395.52" id="textblock"><g><svg viewBox="0 0 395.52 110.7844717444717" height="110.7844717444717" width="395.52"><g transform="matrix(1,0,0,1,0,0)"><svg width="395.52" viewBox="0.45 -33.65 122.08 34.199999999999996" height="110.7844717444717" data-palette-color="#19216c"><path d="M18.15 0L0.45 0 0.45-29.55 18.15-29.55 18.15 0ZM1.3-28.65L1.3-0.9 9-0.9 9-12.05 9.65-12.05 9.65-0.9 17.3-0.9 17.3-28.65 9.65-28.65 9.65-18.25 9-18.25 9-28.65 1.3-28.65ZM8.55-1.35L1.75-1.35 1.75-28.2 8.55-28.2 8.55-17.8 10.1-17.8 10.1-28.2 16.9-28.2 16.9-1.35 10.1-1.35 10.1-12.5 8.55-12.5 8.55-1.35ZM27.6 0.55L27.6 0.55Q24.6 0.55 22.7-0.18 20.8-0.9 19.87-2.9 18.95-4.9 18.95-8.8L18.95-8.8 18.95-18.05Q18.95-22.1 21.2-23.65 23.45-25.2 27.6-25.2L27.6-25.2Q31.75-25.2 34-23.65 36.25-22.1 36.25-18.05L36.25-18.05 36.25-8.8Q36.25-4.9 35.3-2.9 34.35-0.9 32.45-0.18 30.55 0.55 27.6 0.55ZM27.6-0.35L27.6-0.35Q30.3-0.35 32.02-1 33.75-1.65 34.57-3.48 35.4-5.3 35.4-8.8L35.4-8.8 35.4-18.05Q35.4-21.65 33.37-22.98 31.35-24.3 27.6-24.3L27.6-24.3Q23.85-24.3 21.82-22.98 19.8-21.65 19.8-18.05L19.8-18.05 19.8-8.8Q19.8-5.3 20.62-3.48 21.45-1.65 23.2-1 24.95-0.35 27.6-0.35ZM27.6-0.8L27.6-0.8Q25.05-0.8 23.4-1.43 21.75-2.05 20.97-3.78 20.2-5.5 20.2-8.8L20.2-8.8 20.2-18.05Q20.2-21.4 22.1-22.63 24-23.85 27.6-23.85L27.6-23.85Q31.15-23.85 33.05-22.63 34.95-21.4 34.95-18.05L34.95-18.05 34.95-8.8Q34.95-5.5 34.17-3.78 33.4-2.05 31.77-1.43 30.15-0.8 27.6-0.8ZM27.6-4.4L27.6-4.4Q28.15-4.4 28.25-4.83 28.35-5.25 28.35-5.6L28.35-5.6 28.35-19.1Q28.35-19.8 28.17-20.05 28-20.3 27.6-20.3L27.6-20.3Q27.25-20.3 27.05-20.08 26.85-19.85 26.85-19.1L26.85-19.1 26.85-5.6Q26.85-5.1 26.97-4.75 27.1-4.4 27.6-4.4ZM27.6-4.85L27.6-4.85Q27.3-4.85 27.3-5.6L27.3-5.6 27.3-19.1Q27.3-19.85 27.6-19.85L27.6-19.85Q27.9-19.85 27.9-19.1L27.9-19.1 27.9-5.6Q27.9-4.85 27.6-4.85ZM44.84 0L37.05 0 37.05-31.5 44.84-31.5 44.84 0ZM37.74-30.6L37.74-0.9 44.14-0.9 44.14-30.6 37.74-30.6ZM43.74-1.35L38.14-1.35 38.14-30.15 43.74-30.15 43.74-1.35ZM53.54 0L45.74 0 45.74-24.75 53.54-24.75 53.54 0ZM46.44-23.85L46.44-0.9 52.84-0.9 52.84-23.85 46.44-23.85ZM52.44-1.35L46.84-1.35 46.84-23.4 52.44-23.4 52.44-1.35ZM49.64-26.4L49.64-26.4Q48.19-26.4 47.12-27.48 46.04-28.55 46.04-29.95L46.04-29.95Q46.04-31.5 47.07-32.58 48.09-33.65 49.64-33.65L49.64-33.65Q51.09-33.65 52.17-32.68 53.24-31.7 53.24-29.95L53.24-29.95Q53.24-28.55 52.17-27.48 51.09-26.4 49.64-26.4ZM49.64-27.2L49.64-27.2Q50.79-27.2 51.62-28.03 52.44-28.85 52.44-29.95L52.44-29.95Q52.44-31.25 51.62-32 50.79-32.75 49.64-32.75L49.64-32.75Q48.44-32.75 47.64-31.95 46.84-31.15 46.84-29.95L46.84-29.95Q46.84-28.85 47.64-28.03 48.44-27.2 49.64-27.2ZM49.64-27.6L49.64-27.6Q48.59-27.6 47.92-28.35 47.24-29.1 47.24-29.95L47.24-29.95Q47.24-30.9 47.92-31.63 48.59-32.35 49.64-32.35L49.64-32.35Q50.59-32.35 51.32-31.63 52.04-30.9 52.04-29.95L52.04-29.95Q52.04-29.1 51.32-28.35 50.59-27.6 49.64-27.6ZM61.44 0.3L61.44 0.3Q59.04 0.3 57.47-0.38 55.89-1.05 55.12-2.93 54.34-4.8 54.34-8.4L54.34-8.4 54.34-19.25Q54.34-21.65 55.22-22.98 56.09-24.3 57.42-24.83 58.74-25.35 60.09-25.35L60.09-25.35Q61.54-25.35 62.44-24.95L62.44-24.95 62.44-31.55 71.64-31.55 71.64 0 64.99 0 64.74-0.8Q64.19-0.35 63.37-0.03 62.54 0.3 61.44 0.3ZM61.44-0.6L61.44-0.6Q62.89-0.6 63.77-1.23 64.64-1.85 65.09-2.45L65.09-2.45 65.59-0.9 70.79-0.9 70.79-30.6 63.29-30.6 63.29-23.35Q62.79-23.85 62.04-24.15 61.29-24.45 60.09-24.45L60.09-24.45Q58.94-24.45 57.79-24 56.64-23.55 55.92-22.43 55.19-21.3 55.19-19.25L55.19-19.25 55.19-8.4Q55.19-5.15 55.87-3.48 56.54-1.8 57.92-1.2 59.29-0.6 61.44-0.6ZM61.44-1.05L61.44-1.05Q59.49-1.05 58.19-1.6 56.89-2.15 56.27-3.75 55.64-5.35 55.64-8.4L55.64-8.4 55.64-19.25Q55.64-21.1 56.32-22.1 56.99-23.1 58.02-23.53 59.04-23.95 60.09-23.95L60.09-23.95Q61.79-23.95 62.57-23.38 63.34-22.8 63.74-22.15L63.74-22.15 63.74-30.15 70.34-30.15 70.34-1.35 65.89-1.35 65.19-3.5Q64.89-2.8 63.97-1.93 63.04-1.05 61.44-1.05ZM62.99-5.05L62.99-5.05Q63.74-5.05 63.74-6.4L63.74-6.4 63.74-19.9Q63.59-19.95 63.42-19.98 63.24-20 62.99-20L62.99-20Q62.29-20 62.29-18.65L62.29-18.65 62.29-6.4Q62.29-5.05 62.99-5.05ZM62.99-5.5L62.99-5.5Q62.69-5.5 62.69-6.4L62.69-6.4 62.69-18.65Q62.69-19.55 62.99-19.55L62.99-19.55 63.29-19.55 63.29-6.4Q63.29-5.5 62.99-5.5ZM77.79 0.3L77.79 0.3Q76.59 0.3 75.31-0.05 74.04-0.4 73.19-1.6 72.34-2.8 72.34-5.35L72.34-5.35 72.34-8.95Q72.34-12.75 75.64-14.35L75.64-14.35 72.79-14.35 72.79-18.6Q72.79-21.95 74.49-23.63 76.19-25.3 80.84-25.3L80.84-25.3Q84.04-25.3 85.94-24.78 87.84-24.25 88.69-22.8 89.54-21.35 89.54-18.6L89.54-18.6 89.54 0 80.34 0 80.34-0.2Q79.29 0.3 77.79 0.3ZM77.79-0.6L77.79-0.6Q79.09-0.6 79.89-0.95 80.69-1.3 81.19-1.9L81.19-1.9 81.19-0.9 88.69-0.9 88.69-18.6Q88.69-21.05 87.94-22.28 87.19-23.5 85.46-23.95 83.74-24.4 80.84-24.4L80.84-24.4Q76.74-24.4 75.19-22.98 73.64-21.55 73.64-18.6L73.64-18.6 73.64-15.25 79.84-15.25Q79.54-15.05 79.01-14.88 78.49-14.7 77.84-14.45L77.84-14.45Q76.89-14.1 75.79-13.53 74.69-12.95 73.94-11.9 73.19-10.85 73.19-8.95L73.19-8.95 73.19-5.35Q73.19-3.25 73.91-2.23 74.64-1.2 75.69-0.9 76.74-0.6 77.79-0.6ZM77.79-1.05L77.79-1.05Q76.84-1.05 75.89-1.33 74.94-1.6 74.29-2.53 73.64-3.45 73.64-5.35L73.64-5.35 73.64-8.95Q73.64-10.85 74.46-11.9 75.29-12.95 76.64-13.55 77.99-14.15 79.44-14.65L79.44-14.65Q80.74-15.1 81.11-15.75 81.49-16.4 81.49-17.7L81.49-17.7 81.49-19.1Q81.49-19.65 81.36-19.98 81.24-20.3 80.79-20.3L80.79-20.3Q80.34-20.3 80.19-19.85L80.19-19.85Q80.04-19.4 80.04-18.55L80.04-18.55 80.04-15.7 74.04-15.7 74.04-18.6Q74.04-21.25 75.49-22.6 76.94-23.95 80.84-23.95L80.84-23.95Q83.59-23.95 85.21-23.53 86.84-23.1 87.56-21.95 88.29-20.8 88.29-18.6L88.29-18.6 88.29-1.35 81.64-1.35 81.64-3.55Q81.39-2.7 80.51-1.88 79.64-1.05 77.79-1.05ZM80.49-15.65L80.49-15.65 80.49-18.55Q80.49-19.85 80.79-19.85L80.79-19.85Q81.09-19.85 81.09-19.1L81.09-19.1 81.09-17.7Q81.09-16.25 80.49-15.65ZM80.79-4.9L80.79-4.9Q81.39-4.9 81.44-5.5L81.44-5.5Q81.49-5.8 81.49-6.18 81.49-6.55 81.49-7.05L81.49-7.05 81.49-12.35Q80.84-11.95 80.44-11.33 80.04-10.7 80.04-9.65L80.04-9.65 80.04-6.75Q80.04-6 80.14-5.45 80.24-4.9 80.79-4.9ZM80.79-5.35L80.79-5.35Q80.54-5.35 80.54-5.8L80.54-5.8 80.49-6.75 80.49-9.65Q80.49-10.8 81.09-11.45L81.09-11.45 81.09-5.85Q81.09-5.35 80.79-5.35ZM104.74 0L90.04 0 90.04-4.2 94.44-17.65 90.69-17.65 90.69-24.75 104.74-24.75 104.74-20.3 100.59-7.35 104.74-7.35 104.74 0ZM90.89-4L90.89-0.9 103.94-0.9 103.94-6.45 99.39-6.45 103.94-20.45 103.94-23.85 91.48-23.85 91.48-18.55 95.64-18.55 90.89-4ZM103.49-1.35L91.29-1.35 91.29-4 96.19-19 91.94-19 91.94-23.4 103.49-23.4 103.49-20.45 98.84-6 103.49-6 103.49-1.35ZM113.88 0.55L113.88 0.55Q110.88 0.55 108.98-0.18 107.08-0.9 106.16-2.9 105.23-4.9 105.23-8.8L105.23-8.8 105.23-18.05Q105.23-22.1 107.48-23.65 109.73-25.2 113.88-25.2L113.88-25.2Q118.03-25.2 120.28-23.65 122.53-22.1 122.53-18.05L122.53-18.05 122.53-8.8Q122.53-4.9 121.58-2.9 120.63-0.9 118.73-0.18 116.83 0.55 113.88 0.55ZM113.88-0.35L113.88-0.35Q116.58-0.35 118.31-1 120.03-1.65 120.86-3.48 121.68-5.3 121.68-8.8L121.68-8.8 121.68-10.2 114.18-10.2 114.18-5.75Q114.18-5.2 114.11-5.03 114.03-4.85 113.88-4.85L113.88-4.85Q113.58-4.85 113.58-5.75L113.58-5.75 113.58-11.35 121.68-11.35 121.68-18.05Q121.68-21.65 119.66-22.98 117.63-24.3 113.88-24.3L113.88-24.3Q110.13-24.3 108.11-22.98 106.08-21.65 106.08-18.05L106.08-18.05 106.08-8.8Q106.08-5.3 106.91-3.48 107.73-1.65 109.48-1 111.23-0.35 113.88-0.35ZM113.88-0.8L113.88-0.8Q111.33-0.8 109.68-1.43 108.03-2.05 107.26-3.78 106.48-5.5 106.48-8.8L106.48-8.8 106.48-18.05Q106.48-21.4 108.38-22.63 110.28-23.85 113.88-23.85L113.88-23.85Q117.43-23.85 119.33-22.63 121.23-21.4 121.23-18.05L121.23-18.05 121.23-11.8 113.13-11.8 113.13-5.75Q113.13-4.95 113.33-4.67 113.53-4.4 113.88-4.4L113.88-4.4Q114.58-4.4 114.58-5.75L114.58-5.75 114.58-9.75 121.23-9.75 121.23-8.8Q121.23-5.5 120.46-3.78 119.68-2.05 118.06-1.43 116.43-0.8 113.88-0.8ZM113.13-19.05L113.13-14.8 114.58-14.8 114.58-19.05Q114.58-20.3 113.88-20.3L113.88-20.3Q113.53-20.3 113.33-20.05 113.13-19.8 113.13-19.05L113.13-19.05ZM114.18-15.25L113.58-15.25 113.58-19.1Q113.58-19.85 113.88-19.85L113.88-19.85Q114.18-19.85 114.18-19.1L114.18-19.1 114.18-15.25Z" opacity="1" transform="matrix(1,0,0,1,0,0)" fill="#19216c" class="wordmark-text-0" data-fill-palette-color="primary" id="text-0"></path></svg></g></svg></g></svg></g></svg></g><g><svg viewBox="0 0 217.52531027027018 290.0337470270269" height="290.0337470270269" width="217.52531027027018"><g><svg xmlns="http://www.w3.org/2000/svg" xmlns:xlink="http://www.w3.org/1999/xlink" version="1.1" viewBox="12 0 72 96" x="0" y="0" height="290.0337470270269" width="217.52531027027018" class="icon-icon-0" data-fill-palette-color="accent" id="icon-0"><path d="M82 96H14C12.896 96 12 95.1 12 94V18A2 2 0 0 1 14 16H82C83.1 16 84 16.896 84 18V94C84 95.1 83.1 96 82 96M16 92H80V20H16z" fill="#19216c" data-fill-palette-color="accent"></path><path d="M70 20H26A2 2 0 0 1 24 18V2A2 2 0 0 1 26 0H70C71.1 0 72 0.896 72 2V18C72 19.104 71.1 20 70 20M28 16H68V4H28z" fill="#19216c" data-fill-palette-color="accent"></path><path d="M32 28H24A2 2 0 0 1 24 24H32A2 2 0 0 1 32 28" fill="#19216c" data-fill-palette-color="accent"></path><path d="M52 28H44A2 2 0 0 1 44 24H52C53.1 24 54 24.896 54 26S53.1 28 52 28" fill="#19216c" data-fill-palette-color="accent"></path><path d="M44 12H36A2 2 0 0 1 36 8H44A2 2 0 0 1 44 12" fill="#19216c" data-fill-palette-color="accent"></path><path d="M60 12H52C50.9 12 50 11.104 50 10S50.9 8 52 8H60C61.1 8 62 8.896 62 10S61.1 12 60 12" fill="#19216c" data-fill-palette-color="accent"></path><path d="M72 28H64C62.9 28 62 27.104 62 26S62.9 24 64 24H72C73.1 24 74 24.896 74 26S73.1 28 72 28" fill="#19216c" data-fill-palette-color="accent"></path><path d="M32 36H24A2 2 0 0 1 24 32H32A2 2 0 0 1 32 36" fill="#19216c" data-fill-palette-color="accent"></path><path d="M52 36H44A2 2 0 0 1 44 32H52C53.1 32 54 32.896 54 34S53.1 36 52 36" fill="#19216c" data-fill-palette-color="accent"></path><path d="M72 36H64C62.9 36 62 35.104 62 34S62.9 32 64 32H72C73.1 32 74 32.896 74 34S73.1 36 72 36" fill="#19216c" data-fill-palette-color="accent"></path><path d="M32 44H24A2 2 0 0 1 24 40H32A2 2 0 0 1 32 44" fill="#19216c" data-fill-palette-color="accent"></path><path d="M52 44H44A2 2 0 0 1 44 40H52C53.1 40 54 40.896 54 42S53.1 44 52 44" fill="#19216c" data-fill-palette-color="accent"></path><path d="M72 44H64C62.9 44 62 43.104 62 42S62.9 40 64 40H72C73.1 40 74 40.896 74 42S73.1 44 72 44" fill="#19216c" data-fill-palette-color="accent"></path><path d="M32 52H24A2 2 0 0 1 24 48H32A2 2 0 0 1 32 52" fill="#19216c" data-fill-palette-color="accent"></path><path d="M52 52H44A2 2 0 0 1 44 48H52C53.1 48 54 48.896 54 50 54 51.1 53.1 52 52 52" fill="#19216c" data-fill-palette-color="accent"></path><path d="M72 52H64C62.9 52 62 51.1 62 50 62 48.896 62.9 48 64 48H72C73.1 48 74 48.896 74 50 74 51.1 73.1 52 72 52" fill="#19216c" data-fill-palette-color="accent"></path><path d="M32 60H24C22.896 60 22 59.1 22 58S22.896 56 24 56H32C33.104 56 34 56.9 34 58S33.104 60 32 60" fill="#19216c" data-fill-palette-color="accent"></path><path d="M52 60H44C42.896 60 42 59.1 42 58S42.896 56 44 56H52C53.1 56 54 56.9 54 58S53.1 60 52 60" fill="#19216c" data-fill-palette-color="accent"></path><path d="M72 60H64C62.9 60 62 59.1 62 58S62.9 56 64 56H72C73.1 56 74 56.9 74 58S73.1 60 72 60" fill="#19216c" data-fill-palette-color="accent"></path><path d="M32 68H24C22.896 68 22 67.1 22 66S22.896 64 24 64H32C33.104 64 34 64.9 34 66S33.104 68 32 68" fill="#19216c" data-fill-palette-color="accent"></path><path d="M52 68H44C42.896 68 42 67.1 42 66S42.896 64 44 64H52C53.1 64 54 64.9 54 66S53.1 68 52 68" fill="#19216c" data-fill-palette-color="accent"></path><path d="M72 68H64C62.9 68 62 67.1 62 66S62.9 64 64 64H72C73.1 64 74 64.9 74 66S73.1 68 72 68" fill="#19216c" data-fill-palette-color="accent"></path><path d="M32 76H24C22.896 76 22 75.1 22 74S22.896 72 24 72H32C33.104 72 34 72.9 34 74S33.104 76 32 76" fill="#19216c" data-fill-palette-color="accent"></path><path d="M52 76H44C42.896 76 42 75.1 42 74S42.896 72 44 72H52C53.1 72 54 72.9 54 74S53.1 76 52 76" fill="#19216c" data-fill-palette-color="accent"></path><path d="M72 76H64C62.9 76 62 75.1 62 74S62.9 72 64 72H72C73.1 72 74 72.9 74 74S73.1 76 72 76" fill="#19216c" data-fill-palette-color="accent"></path><path d="M54 96H42C40.896 96 40 95.1 40 94V82C40 80.9 40.896 80 42 80H54C55.1 80 56 80.9 56 82V94C56 95.1 55.1 96 54 96M44 92H52V84H44z" fill="#19216c" data-fill-palette-color="accent"></path></svg></g></svg></g></svg></g><defs></defs></svg><rect width="395.52" height="179.46550575355133" fill="none" stroke="none" visibility="hidden"></rect></g></svg></g></svg>